<svg width="12" height="12" viewBox="0 0 12 12" fill="none" xmlns="http://www.w3.org/2000/svg">
<path d="M6 0.75H3.75C2.33579 0.75 1.62868 0.75 1.18934 1.18934C0.75 1.62868 0.75 2.33579 0.75 3.75V8.25C0.75 9.6642 0.75 10.3713 1.18934 10.8106C1.62868 11.25 2.33579 11.25 3.75 11.25H8.25C9.6642 11.25 10.3713 11.25 10.8106 10.8106C11.25 10.3713 11.25 9.6642 11.25 8.25V6M3.98924 6.51833L8.43645 2.12102C8.7912 1.77031 9.3558 1.75097 9.73365 2.07657C10.1498 2.43516 10.1792 3.06974 9.798 3.46526L5.42467 8.00265L3.75 8.25L3.98924 6.51833Z" stroke="#28303F" stroke-width="1.3" stroke-linecap="round" stroke-linejoin="round"/>
</svg>
